<?xml version="1.0" encoding="UTF-8"?>
<svg xmlns="http://www.w3.org/2000/svg" xmlns:xlink="http://www.w3.org/1999/xlink" width="16px" height="16px" viewBox="0 0 16 16" version="1.1">
<g id="surface1">
<path style=" stroke:none;fill-rule:nonzero;fill:rgb(0%,0%,0%);fill-opacity:1;" d="M 12.601562 5.914062 C 12.382812 5.914062 12.210938 6.085938 12.210938 6.304688 L 12.210938 13.511719 C 12.210938 14.273438 11.585938 14.894531 10.824219 14.894531 L 2.171875 14.894531 C 1.410156 14.894531 0.789062 14.273438 0.789062 13.511719 L 0.789062 4.859375 C 0.789062 4.097656 1.410156 3.476562 2.171875 3.476562 L 10.824219 3.476562 C 11.042969 3.476562 11.222656 3.300781 11.222656 3.082031 C 11.222656 2.867188 11.042969 2.6875 10.824219 2.6875 L 2.171875 2.6875 C 0.976562 2.6875 0 3.664062 0 4.859375 L 0 13.511719 C 0 14.710938 0.976562 15.683594 2.171875 15.683594 L 10.824219 15.683594 C 12.023438 15.683594 12.996094 14.710938 12.996094 13.511719 L 12.996094 6.304688 C 12.996094 6.085938 12.820312 5.914062 12.601562 5.914062 Z M 12.601562 5.914062 "/>
<path style=" stroke:none;fill-rule:nonzero;fill:rgb(0%,0%,0%);fill-opacity:1;" d="M 15.644531 0.671875 C 15.164062 0.195312 14.394531 0.195312 13.914062 0.671875 L 7.15625 7.433594 C 7.148438 7.445312 7.042969 7.550781 7.019531 7.609375 L 6.082031 9.710938 C 6.015625 9.859375 6.046875 10.035156 6.164062 10.148438 C 6.238281 10.226562 6.339844 10.265625 6.445312 10.265625 C 6.496094 10.265625 6.550781 10.257812 6.601562 10.230469 L 8.707031 9.296875 C 8.765625 9.269531 8.871094 9.167969 8.882812 9.160156 L 15.644531 2.398438 C 15.871094 2.164062 16 1.859375 16 1.535156 C 16 1.210938 15.871094 0.902344 15.644531 0.671875 Z M 15.085938 1.839844 L 8.320312 8.601562 L 7.222656 9.09375 L 7.710938 7.992188 L 14.476562 1.230469 C 14.636719 1.070312 14.921875 1.070312 15.085938 1.230469 C 15.164062 1.3125 15.210938 1.417969 15.210938 1.535156 C 15.210938 1.648438 15.164062 1.757812 15.085938 1.839844 Z M 15.085938 1.839844 "/>
</g>
</svg>
